<?xml version="1.0" encoding="utf-8"?>
<!-- Generator: Adobe Illustrator 23.0.3, SVG Export Plug-In . SVG Version: 6.00 Build 0)  -->
<svg version="1.1"
	 id="svg2" inkscape:version="0.91 r13725" sodipodi:docname="Google_Favicon_2012.svg" xmlns:cc="http://creativecommons.org/ns#" xmlns:dc="http://purl.org/dc/elements/1.1/" xmlns:inkscape="http://www.inkscape.org/namespaces/inkscape" xmlns:rdf="http://www.w3.org/1999/02/22-rdf-syntax-ns#" xmlns:sodipodi="http://sodipodi.sourceforge.net/DTD/sodipodi-0.dtd" xmlns:svg="http://www.w3.org/2000/svg"
	 xmlns="http://www.w3.org/2000/svg" xmlns:xlink="http://www.w3.org/1999/xlink" x="0px" y="0px" viewBox="0 0 800 800"
	 style="enable-background:new 0 0 800 800;" xml:space="preserve">
<style type="text/css">
	.st0{fill-rule:evenodd;clip-rule:evenodd;fill:#FFFFFF;}
	.st1{fill:#4D90FE;}
</style>
<path class="st0" d="M700,0H100C44.8,0,0,44.8,0,100v600c0,55.2,44.8,100,100,100h600c55.2,0,100-44.8,100-100V100
	C800,44.8,755.2,0,700,0z"/>
<path class="st1" d="M522.7,444.4c-16.9-13.6-32.1-24.7-37.7-29.4c-15-12.4-16-24.2-16-30.6s0.7-12.4,11.7-26.7
	c11-14.3,30.3-23.9,50.3-48.1l0,0c15.2-17.2,26.4-40.9,26.4-73.4c0-53.2-28.6-87-56.2-107.2h48.3l51-28.9H429.4
	c-108.3,0-182,67-182,149.7c0,80.5,70.6,122.6,129.4,122.6c9.9,0,18.7-0.7,26.4-1.8c-4.5,7.7-8.3,18.1-8.3,31.1
	c0,21.4,11.6,39.8,23.7,53.2c-150.8,5.9-210.8,70-210.8,132.1c0,29.6,18.2,112.9,168.5,112.9c151.5,0,207.7-84.8,207.7-152.2
	C584.1,500.2,551.1,467.1,522.7,444.4z M316.8,209.7c0-57.7,37-83.8,71.3-83.8c70.2,0,99.8,93.3,99.8,148.6
	c0,46.3-31.3,75.9-73.4,75.9C363.5,350.5,316.8,288.1,316.8,209.7z M414.8,666.6c-50.3,0-137.2-20-137.2-96.2
	c0-87.4,119.8-93.8,151.5-93.8c6,0,11.3,0.4,16,0.9c14.3,8.6,46,34.4,57.6,44.9c15.7,14.2,28.3,33.7,28.3,59.7
	C531,650.6,463.3,666.6,414.8,666.6z"/>
</svg>
